<?xml version="1.0" encoding="UTF-8" standalone="no"?>
<!-- Created with Inkscape (http://www.inkscape.org/) -->

<svg
   xmlns:dc="http://purl.org/dc/elements/1.1/"
   xmlns:cc="http://creativecommons.org/ns#"
   xmlns:rdf="http://www.w3.org/1999/02/22-rdf-syntax-ns#"
   xmlns:svg="http://www.w3.org/2000/svg"
   xmlns="http://www.w3.org/2000/svg"
   xmlns:sodipodi="http://sodipodi.sourceforge.net/DTD/sodipodi-0.dtd"
   xmlns:inkscape="http://www.inkscape.org/namespaces/inkscape"
   width="349.7002mm"
   height="88.894806mm"
   viewBox="0 0 349.70019 88.894808"
   version="1.1"
   id="svg8"
   inkscape:version="0.92.2 (5c3e80d, 2017-08-06)"
   sodipodi:docname="congratulations.svg">
  <sodipodi:namedview
     id="base"
     pagecolor="#ffffff"
     bordercolor="#666666"
     borderopacity="1.0"
     inkscape:pageopacity="0.0"
     inkscape:pageshadow="2"
     inkscape:zoom="1"
     inkscape:cx="645.49816"
     inkscape:cy="178.20715"
     inkscape:document-units="mm"
     inkscape:current-layer="layer1"
     showgrid="false"
     inkscape:window-width="1920"
     inkscape:window-height="1017"
     inkscape:window-x="-8"
     inkscape:window-y="-8"
     inkscape:window-maximized="1"
     fit-margin-top="10"
     fit-margin-left="10"
     fit-margin-right="10"
     fit-margin-bottom="10" />
  <defs
     id="defs2" />
  <metadata
     id="metadata5">
    <rdf:RDF>
      <cc:Work
         rdf:about="">
        <dc:format>image/svg+xml</dc:format>
        <dc:type
           rdf:resource="http://purl.org/dc/dcmitype/StillImage" />
        <dc:title></dc:title>
      </cc:Work>
    </rdf:RDF>
  </metadata>
  <g
     transform="translate(440.52891,-99.917785)"
     inkscape:label="Layer 1"
     inkscape:groupmode="layer"
     id="layer1">
    <path
       style="fill:#000000;stroke-width:0.35277778"
       d="m -345.67606,178.38193 c -3.74815,-0.92425 -4.81054,-5.98504 -2.69603,-8.92815 2.08492,-5.21511 6.35143,-8.99322 9.88226,-13.15885 0.79605,-1.32283 -0.25837,-2.67118 -1.51355,-1.40798 -2.88881,2.18526 -6.76127,0.75988 -8.84676,-1.82252 -2.91769,1.13995 -6.06122,3.57437 -9.27727,2.60505 -3.28579,-3.20698 -1.15429,-8.51523 -2.45351,-12.34647 -2.98327,3.79545 -3.95603,8.98933 -7.2438,12.52768 -3.83699,1.03975 -4.63323,-4.09953 -4.09308,-6.83032 0.27593,-2.93309 1.54637,-6.73502 -1.5838,-8.61274 -1.13438,-0.73532 -2.52673,-3.01057 -3.75332,-2.39102 -0.55802,2.27999 1.07442,4.35711 0.50733,6.73611 -0.54504,4.73201 -3.36547,10.26498 -8.5656,11.2123 -3.52355,0.6192 -6.63393,-1.84886 -8.16112,-4.78979 -2.29075,1.47679 -4.3704,3.80431 -6.90202,5.19595 -5.72738,3.83343 -13.15173,5.35272 -19.86955,3.87411 -8.38157,-2.96812 -11.98939,-13.15539 -9.51834,-21.2656 2.17765,-9.64594 7.82625,-18.89927 16.33972,-24.14125 4.91001,-2.96249 12.39905,-3.58071 15.9612,1.75947 2.27877,2.90292 2.18282,7.16446 1.29317,10.55489 -2.39609,5.5255 -7.51539,10.91445 -13.88088,11.02028 -2.68482,0.13558 -4.59201,-2.38256 -3.49163,-4.89303 1.79222,-1.63687 4.76547,0.13593 6.90789,-1.15048 4.914,-1.73251 7.56185,-8.56695 4.43504,-12.85883 -4.17656,-3.22863 -9.80731,-0.33114 -12.56353,3.40228 -4.11957,4.72999 -6.92744,10.67155 -8.18884,16.64077 -0.66328,3.64348 -0.75468,7.69177 0.35137,11.2648 1.77116,3.86221 6.16535,5.50777 10.1775,4.61436 6.79993,-0.81438 12.21248,-5.54076 17.46358,-9.53095 1.01821,-1.8084 0.62502,-4.41412 1.73147,-6.39331 3.44362,-8.98818 15.7926,-8.61126 21.20759,-1.7371 2.09454,2.00833 1.61546,-2.0526 2.26549,-3.25176 0.6149,-1.95898 4.5028,-3.37259 4.8006,-0.39401 0.27398,2.90624 -0.59465,5.91326 -0.19049,8.73211 1.80962,-1.63077 2.07675,-4.72079 3.68946,-6.71998 0.7895,-2.49634 4.62184,-5.56407 6.50719,-2.44946 1.66968,2.19314 -0.0874,5.3789 -0.14159,7.99407 -0.11136,2.94871 -1.0279,6.33573 0.19056,9.03713 2.43839,0.53595 5.42654,-1.73452 5.41863,-4.36061 1.50051,-5.08922 3.53434,-10.24181 8.33836,-13.03327 2.14636,-1.61304 4.77675,-1.01916 6.69734,0.5492 1.96681,-0.11258 4.1703,0.62167 3.71195,3.0623 0.49207,4.30736 -1.22128,8.29157 -1.29606,12.56321 0.14163,1.29274 -0.87438,3.64759 0.35009,4.23308 3.53688,-2.94349 7.04126,-6.68658 8.1985,-11.24835 0.0147,-1.791 0.77172,-3.39119 1.08777,-5.10109 0.43354,-1.98771 0.96993,-5.55858 3.8707,-5.03833 2.22875,1.50033 0.25715,5.03785 1.31072,6.98373 2.07685,-2.46251 3.32165,-7.37277 7.43872,-6.86714 3.0394,1.3807 0.71315,5.16525 1.00887,7.64797 -1.37415,4.00632 3.93617,5.18116 5.70697,2.08022 2.26892,-4.53877 6.1556,-9.46001 11.58771,-9.81961 1.61071,0.99986 3.05798,2.33654 5.12416,2.19005 2.56152,1.43822 0.58238,4.88344 0.47788,7.14979 -0.32484,3.04258 -1.68053,6.46499 -0.40883,9.35586 3.13745,-0.21836 5.3068,-3.39288 7.276,-5.54845 -0.10868,-3.8068 0.40639,-7.79954 -0.0812,-11.48924 -1.81152,-1.35576 -6.01569,-0.19366 -6.08319,-3.17325 2.08515,-1.46763 5.49842,-0.21872 7.42397,-1.16379 0.92317,-4.98308 2.4845,-10.1806 5.68608,-14.28596 1.41286,-2.42545 5.22655,-3.63305 6.87082,-0.76455 2.40737,3.0378 1.8387,7.1619 0.25219,10.37316 -0.4544,1.96267 -2.86705,3.74758 -2.30326,5.69375 2.3695,0.0275 5.39059,-0.62827 7.36255,0.82773 0.32384,4.78583 -6.41396,2.15264 -9.38449,2.88299 -2.16029,-0.23534 -2.96307,2.291 -4.03663,3.69809 -0.30536,3.71283 -0.33534,7.6534 -0.0911,11.27127 2.99099,3.38348 7.48724,0.28547 10.45,-1.52199 2.55115,-2.71307 1.79188,-6.95529 2.88778,-10.32607 0.13205,-2.86969 3.62346,-7.14379 6.32686,-4.38024 -0.86836,5.49195 -2.19194,11.06472 -2.614,16.64436 1.23089,2.8125 4.71789,-0.18883 4.90854,-2.29427 1.54415,-4.77282 1.44492,-10.08725 3.65756,-14.59951 1.8305,-1.64022 5.70045,-0.28172 4.59902,2.55484 -0.66823,5.13359 -2.31769,10.76664 -1.60049,15.66301 2.32481,-0.25441 5.11988,-1.21186 6.49768,-3.07245 -1.25484,-8.29853 1.14023,-16.53906 3.54001,-24.40886 2.28182,-4.96999 4.65125,-10.91862 10.05577,-13.1501 2.86587,-1.295 5.52118,1.33215 5.15032,4.22613 0.22586,8.3196 -4.79435,15.44452 -8.34647,22.59776 -1.95196,3.2163 -3.9697,6.71743 -4.50956,10.33747 0.0374,1.94501 1.59787,3.82363 3.61021,2.63312 3.68172,-0.88191 2.88663,-5.3437 4.55587,-7.94898 2.17717,-4.6918 6.21499,-9.75912 11.76192,-9.96664 1.54127,1.13273 2.98955,2.37929 5.08078,2.15908 1.61798,0.92149 1.07947,3.74536 0.69068,5.31846 -0.6026,3.37256 -1.66677,6.84105 -1.24098,10.38723 1.40218,1.79534 3.88184,-0.6571 5.10397,-1.74267 1.91352,-1.63569 3.24251,-3.49752 2.70983,-6.11894 -0.1521,-2.78675 0.51177,-5.81882 -0.0413,-8.44674 -1.84042,-1.13384 -5.68199,-0.17543 -5.92423,-2.97824 1.72467,-1.65928 5.14752,-0.27369 7.00349,-1.2602 1.82858,-5.8565 3.19935,-12.75835 8.50913,-16.51158 4.05732,-1.26821 6.27212,3.68523 6.09196,7.01515 -0.3114,3.5273 -2.42868,6.8374 -4.15437,9.85704 0.74746,1.49666 3.10245,0.029 4.53218,0.59524 1.72575,-0.18892 4.432,0.61044 3.04487,2.81095 -1.80886,1.74902 -4.87154,0.57168 -7.20286,0.92472 -2.03583,-0.24016 -3.87476,-0.0587 -4.84924,1.97404 -2.32762,2.04058 -0.91295,5.46704 -1.35378,8.20636 0.13847,2.2593 -0.93472,5.30668 1.93019,6.16991 3.33345,0.65118 6.55423,-1.64165 9.16697,-3.45876 1.35779,-2.07876 0.87286,-4.91052 2.06857,-7.05058 0.39469,-2.0149 1.23665,-3.84999 1.82706,-5.83068 0.98464,-1.73759 5.29323,-3.52041 5.46777,-0.45525 -0.2167,4.58381 -2.72093,8.72927 -2.75511,13.37913 -0.0365,1.49345 -0.79822,5.39146 1.81446,4.33712 1.82067,-1.07173 4.96178,-1.87518 4.23486,-4.53145 -0.75349,-5.95982 2.44253,-12.83675 8.67902,-14.25397 5.45176,-1.4371 10.53629,1.92299 14.40067,5.38863 1.53942,0.18482 0.54911,-2.90533 1.61475,-3.86972 0.59397,-2.71578 4.82015,-2.67542 5.01692,0.28252 0.2729,2.39991 -1.30636,5.21571 -0.0716,7.38961 2.1253,-2.89413 2.89748,-7.27911 6.2305,-9.35728 3.03866,-1.65549 4.95056,2.65838 3.96038,5.1077 -0.40783,4.13441 -2.22204,8.53672 -0.71296,12.58784 2.12276,1.71828 4.33499,-1.58865 6.0292,-2.72908 5.34635,-4.08294 8.19161,-10.50181 13.26566,-14.79883 1.99859,-1.65067 6.42338,0.79959 3.87499,3.16024 -1.56188,1.75061 -2.94726,3.89551 -1.86772,6.29849 1.25483,2.44057 0.21872,5.57877 1.0026,7.9014 2.84102,-1.20421 5.62355,-3.1081 8.38076,-4.12003 0.24864,2.66019 -0.0753,6.03727 -3.19282,6.79235 -5.30659,2.40674 -11.58889,4.91262 -17.36914,2.78659 -1.96748,-1.54767 -3.71638,-3.59443 -6.14722,-1.40564 -2.39395,1.15523 -6.49484,3.6371 -8.03422,0.054 -1.66666,-3.5964 -0.77326,-7.67031 -0.64861,-11.39642 -1.74716,0.82836 -2.36504,3.6533 -3.47713,5.36855 -1.59737,2.59215 -2.32638,6.09951 -4.91154,7.85231 -3.2766,0.76291 -3.81506,-3.37834 -3.42712,-5.71049 -0.12467,-2.70996 0.56958,-5.76018 -0.0585,-8.25265 -1.87128,-1.34026 -3.43422,-3.98106 -5.7831,-4.13102 -0.34751,1.74898 1.16002,3.4354 0.64637,5.35442 0.0424,3.78769 -0.85832,7.45719 -3.68601,10.04933 -3.04949,3.99763 -9.74423,3.45884 -12.22927,-0.85223 -3.90119,1.8022 -8.80715,5.47265 -12.97872,2.44475 -0.59609,-1.4096 -1.49716,-2.79844 -3.10123,-1.52817 -3.31263,1.44898 -7.81472,4.61303 -10.94927,1.12978 -1.41006,-0.77802 -1.5689,-3.81315 -3.2335,-3.47496 -2.71833,2.34285 -5.93982,6.37159 -9.95515,4.82756 -1.32752,-0.74469 -2.30384,-3.17661 -3.52459,-3.15961 -2.82154,3.23872 -8.50507,4.8494 -11.71588,1.35385 -3.12509,0.18678 -6.35884,3.18743 -9.49829,1.54234 -1.44802,-2.34188 -3.52497,-4.23502 -5.92052,-1.68446 -2.78969,1.2546 -7.48159,3.6509 -9.25376,-0.26364 -0.50433,-2.22681 -2.36339,-1.76027 -3.5431,-0.33864 -2.17917,2.46823 -6.7452,4.32337 -8.7359,0.60794 -0.61383,-1.80995 -1.81946,-1.21912 -3.10768,-0.40602 -3.23087,1.68329 -7.94371,4.36196 -10.88024,0.72616 -1.05494,-1.06606 -1.76384,-4.70319 -3.54759,-2.48688 -2.25814,2.29404 -5.5214,5.3962 -8.97315,4.21711 -1.73522,-0.459 -2.0178,-3.17671 -3.59021,-3.2351 -4.09922,5.19821 -13.2684,3.88973 -13.50643,-3.43518 -2.27722,-0.47314 -5.10396,0.18072 -6.59248,-2.22805 -1.98899,-1.39638 -0.93839,-4.74376 -2.56761,-5.94708 -2.29157,4.58372 -3.10168,9.98468 -5.88674,14.35279 -1.74726,1.75136 -3.96091,-0.64311 -4.21635,-2.3337 -2.56553,1.12081 -4.53209,3.57639 -7.03224,5.00044 -2.40791,1.83114 -1.42192,5.45022 -2.03174,8.10513 -0.39904,2.8523 -1.09415,5.53209 -2.39466,8.08154 -1.90356,3.49698 -5.83005,5.49275 -9.72556,4.13209 z m 4.49616,-5.34329 c 1.79966,-2.94304 2.43141,-6.67249 2.51005,-10.09245 -2.35299,0.89058 -3.44072,3.95534 -4.78609,6.0389 -0.53762,1.48315 -1.36496,2.93177 -1.41249,4.4081 0.59782,1.69214 2.93507,0.61037 3.68853,-0.35455 z m 225.23106,-21.49659 c 1.76008,-2.08979 0.84864,-5.28979 0.73805,-7.81724 -1.48207,-0.17136 -2.96332,2.23729 -4.24956,3.28932 -2.39804,1.45838 -2.63532,4.77492 0.50069,5.42267 1.07684,0.28927 2.23563,-0.12476 3.01082,-0.89475 z m -268.52249,-0.34897 c 3.41087,-2.99411 3.37582,-8.23759 2.75655,-12.37695 -1.06235,-3.26513 -5.32223,-1.5514 -5.90085,1.15269 -1.61005,3.04197 -1.59937,6.90988 -0.68985,10.14442 0.86882,1.08136 2.54745,2.27996 3.83415,1.07984 z m 88.85543,-0.0898 c 3.39969,-3.50463 3.46016,-8.85582 4.53262,-13.36233 -1.22625,-1.91638 -3.75358,0.70579 -4.60136,2.00822 -2.03823,3.28681 -3.95873,7.70733 -2.25034,11.4308 0.73049,0.79721 1.58355,0.58742 2.31908,-0.0767 z m 78.71401,0.0898 c 3.49034,-3.07598 3.14372,-8.31984 4.56512,-12.44596 0.59652,-2.84562 -2.83894,-1.29472 -3.7137,0.0143 -2.60436,3.42433 -4.99135,8.3181 -2.96461,12.52346 0.5706,0.82052 1.46684,0.32033 2.11319,-0.0918 z m -122.9365,-0.69488 c 2.23801,-2.927 1.5281,-7.01433 2.97267,-10.24528 -0.40865,-1.20041 1.79761,-4.06658 -0.45984,-3.68445 -3.45894,1.72036 -5.57315,5.61381 -6.31451,9.26732 0.0207,1.91953 -0.82011,5.99662 2.285,5.53415 0.57915,-0.12565 1.11445,-0.43749 1.51668,-0.87174 z m 179.9675,-0.28092 c 2.23496,-3.53007 2.97621,-8.49519 1.19723,-12.3419 -2.22328,-2.58859 -5.0514,0.98591 -5.90155,2.88764 -0.67381,3.06006 -1.49967,6.7755 0.15191,9.62492 1.15162,1.52355 3.46842,1.32226 4.55241,-0.17066 z m -70.863,-16.15992 c 2.48004,-5.83161 6.08664,-11.73395 5.85463,-18.2393 -2.05923,-0.90939 -2.69971,2.57223 -3.55355,3.92181 -1.95035,4.85149 -3.3911,10.04854 -3.87742,15.22238 0.51723,1.52754 1.28604,-0.34354 1.57634,-0.90489 z m -39.75527,-6.17362 c 1.46538,-2.71254 3.36545,-5.77057 3.09909,-8.89392 -1.28975,-2.42264 -3.29127,0.0691 -3.49892,1.79017 -0.86972,2.89892 -2.38987,5.9523 -2.16271,8.95536 1.07657,0.82944 2.07814,-1.13876 2.56254,-1.85161 z m 78.03721,1.5875 c 1.50842,-3.08999 3.9139,-6.09313 4.06116,-9.61708 0.46974,-2.70818 -2.95339,-1.83202 -3.20863,0.18197 -0.86632,2.15496 -1.48807,4.26749 -2.0311,6.47131 -0.0405,0.89957 -1.85875,4.56315 1.17857,2.9638 z m 16.81477,-0.7022 c -3.79274,-0.62749 -3.48268,-6.1105 -0.13344,-7.16667 3.25094,-1.91332 8.08427,2.15377 5.22157,5.3845 -1.12182,1.58482 -3.22442,2.29939 -5.08813,1.78217 z"
       id="path1021"
       inkscape:connector-curvature="0" />
  </g>
</svg>
